<?xml version="1.0" standalone="no"?>
<!DOCTYPE svg PUBLIC "-//W3C//DTD SVG 20010904//EN"
 "http://www.w3.org/TR/2001/REC-SVG-20010904/DTD/svg10.dtd">
<svg version="1.0" xmlns="http://www.w3.org/2000/svg"
 width="262.000000pt" height="262.000000pt" viewBox="0 0 262.000000 262.000000"
 preserveAspectRatio="xMidYMid meet">
<metadata>
Created by potrace 1.11, written by Peter Selinger 2001-2013
</metadata>
<g transform="translate(0.000000,262.000000) scale(0.100000,-0.100000)"
fill="#000000" stroke="none">
<path d="M1 2105 c1 -284 5 -531 9 -550 4 -19 4 -33 0 -30 -4 3 -8 -93 -8
-212 -1 -210 4 -247 32 -265 6 -4 7 -10 3 -14 -4 -4 -14 1 -21 12 -13 17 -15
2 -15 -126 0 -134 2 -146 21 -167 22 -23 12 -33 -10 -11 -9 9 -12 -3 -12 -55
0 -54 4 -71 20 -87 26 -26 26 -39 0 -15 -20 18 -20 17 -20 -53 0 -64 2 -72 26
-91 29 -22 25 -28 -7 -11 -18 10 -19 7 -19 -54 0 -58 3 -67 26 -85 29 -22 25
-28 -7 -11 -18 10 -19 7 -19 -52 0 -50 4 -66 22 -85 22 -23 12 -33 -10 -11 -9
9 -12 -4 -12 -60 l0 -72 1310 0 c825 0 1310 4 1310 10 0 5 -8 7 -17 3 -17 -6
-17 -5 0 14 12 14 17 37 17 81 0 54 -2 61 -17 55 -17 -6 -17 -5 0 14 12 14 17
37 17 82 0 55 -2 62 -17 57 -16 -6 -16 -6 0 12 12 13 17 36 17 81 0 55 -2 62
-17 57 -16 -6 -16 -6 0 12 21 23 25 142 5 142 -9 0 -9 3 0 12 7 7 12 39 12 75
0 42 -4 63 -12 63 -9 0 -9 3 0 12 16 16 16 138 1 138 -8 0 -8 4 0 13 7 10 11
256 11 850 l0 837 -1310 0 -1311 0 2 -515z m729 230 c41 -9 127 -33 190 -55
150 -51 211 -61 377 -61 156 0 227 11 436 70 338 95 466 93 567 -8 172 -172
50 -451 -197 -451 -230 0 -452 -177 -507 -405 -11 -46 -16 -165 -20 -495 -6
-489 -8 -525 -29 -566 -24 -45 -78 -95 -127 -117 -54 -25 -158 -27 -211 -5
-79 34 -139 110 -153 194 l-7 40 253 2 c139 1 254 6 256 11 4 12 -15 24 -21
14 -3 -5 -100 -6 -217 -3 -117 3 -217 2 -223 -2 -6 -4 -15 -2 -19 5 -6 9 -10
8 -17 -2 -6 -10 -10 63 -11 200 -2 441 -9 666 -20 719 -21 91 -66 168 -149
251 -42 42 -100 88 -128 103 -64 32 -161 56 -229 56 -162 0 -275 108 -276 262
0 125 60 209 181 255 45 17 193 11 301 -12z m-593 -557 c-3 -8 -6 -5 -6 6 -1
11 2 17 5 13 3 -3 4 -12 1 -19z m2254 -51 c-10 -9 -11 -8 -5 6 3 10 9 15 12
12 3 -3 0 -11 -7 -18z m-2084 -84 c13 -10 13 -13 2 -13 -17 0 -57 71 -51 90 3
7 11 -5 18 -26 7 -21 21 -44 31 -51z m133 66 c0 -6 -4 -7 -10 -4 -5 3 -10 11
-10 16 0 6 5 7 10 4 6 -3 10 -11 10 -16z m90 -5 c0 -8 -5 -12 -10 -9 -6 4 -8
11 -5 16 9 14 15 11 15 -7z m1737 -31 c-3 -10 -5 -2 -5 17 0 19 2 27 5 18 2
-10 2 -26 0 -35z m-257 6 c-14 -26 -18 -24 -12 6 2 14 8 22 13 19 5 -3 5 -14
-1 -25z m-1845 -99 c10 -11 14 -20 9 -20 -15 0 -44 56 -43 82 1 18 3 15 9 -10
4 -18 16 -42 25 -52z m232 38 c-3 -7 -5 -2 -5 12 0 14 2 19 5 13 2 -7 2 -19 0
-25z m177 11 c-6 -11 -24 -2 -24 11 0 5 7 7 15 4 8 -4 12 -10 9 -15z m89 -5
c4 -23 3 -24 -10 -11 -9 8 -12 20 -9 26 10 16 13 14 19 -15z m1320 2 c-4 -17
-10 -22 -24 -19 -17 5 -17 6 4 24 12 10 23 18 23 19 1 0 -1 -11 -3 -24z m277
21 c0 -2 -10 -12 -22 -23 l-23 -19 19 23 c18 21 26 27 26 19z m-362 -35 c-21
-4 -62 -68 -53 -82 3 -6 0 -7 -9 -4 -21 8 -20 17 3 38 11 10 22 28 25 41 5 18
11 22 28 17 18 -5 19 -7 6 -10z m502 -6 c0 -13 -9 -34 -21 -47 l-21 -24 16 25
c9 13 16 35 16 47 0 13 2 23 5 23 3 0 5 -11 5 -24z m-2130 -53 c0 -21 -3 -24
-9 -14 -5 8 -7 20 -4 28 8 21 13 15 13 -14z m449 0 c2 -2 -3 -3 -11 -3 -9 0
-19 7 -22 16 -6 15 -4 15 11 3 10 -7 20 -15 22 -16z m76 -31 c-2 -3 -7 3 -11
12 -3 9 -14 16 -23 17 -12 0 -11 2 4 8 15 6 22 3 28 -12 4 -11 5 -22 2 -25z
m-176 12 c46 -19 106 -77 134 -129 21 -39 22 -50 22 -405 0 -422 -3 -510 -16
-510 -6 0 -7 9 -3 22 6 21 6 21 -11 5 -16 -16 -39 -18 -251 -15 -170 2 -234 0
-234 -8 0 -7 9 -14 20 -17 11 -3 20 -2 20 1 0 4 101 6 225 4 168 -2 225 -6
225 -15 0 -7 4 -6 10 3 15 24 13 -17 -5 -77 -18 -60 -89 -133 -151 -154 -50
-17 -138 -17 -188 0 -54 19 -120 82 -144 139 -19 45 -21 75 -28 487 -6 391 -5
446 9 496 18 61 79 139 128 164 69 36 164 40 238 9z m1140 2 c-7 -6 -19 -18
-26 -26 -10 -12 -10 -9 -1 16 8 21 17 30 25 27 12 -5 12 -8 2 -17z m481 -14
c60 -30 124 -104 134 -155 9 -44 5 -907 -4 -872 -4 17 -8 25 -9 18 -2 -18
-447 -18 -469 -1 -13 11 -15 10 -9 -4 3 -10 2 -20 -3 -23 -6 -4 -10 4 -10 17
0 18 -2 20 -10 8 -6 -10 -10 133 -10 413 0 362 2 433 15 464 64 152 224 210
375 135z m285 -21 c-21 -42 -35 -47 -16 -6 9 19 19 34 24 35 4 0 1 -13 -8 -29z
m-2484 -8 c13 -16 12 -17 -3 -4 -10 7 -18 15 -18 17 0 8 8 3 21 -13z m817 -19
c2 -1 -8 -4 -22 -6 -19 -4 -25 0 -29 18 -4 22 -3 22 22 6 14 -9 27 -17 29 -18z
m-716 -4 c3 -16 3 -30 2 -30 -9 0 -24 42 -19 50 10 16 12 12 17 -20z m780 2
c5 -17 2 -17 -18 -8 -20 10 -21 12 -6 18 9 4 18 7 18 7 1 1 4 -7 6 -17z m793
-6 c0 -20 -3 -21 -18 -12 -16 10 -16 12 0 24 9 6 17 12 17 12 1 0 1 -11 1 -24z
m20 -108 c-20 -23 -25 -38 -20 -57 6 -24 5 -25 -12 -10 -10 9 -25 19 -33 22
-13 5 -13 6 1 6 29 2 62 47 57 80 -5 31 -4 31 14 11 19 -20 19 -21 -7 -52z
m-781 32 c-6 -6 -10 -3 -10 10 0 13 4 16 10 10 7 -7 7 -13 0 -20z m1571 -40
c-8 -16 -20 -32 -27 -36 -6 -4 -4 3 5 17 9 13 17 32 17 42 0 10 4 15 10 12 6
-4 4 -17 -5 -35z m-2487 -16 c-4 -3 -12 5 -18 18 -12 22 -12 22 6 6 10 -10 15
-20 12 -24z m102 -29 c0 -5 -5 -3 -10 5 -5 8 -10 20 -10 25 0 6 5 3 10 -5 5
-8 10 -19 10 -25z m782 11 c5 -24 4 -24 -17 -8 -16 12 -19 19 -11 24 18 12 23
9 28 -16z m-69 7 c-7 -2 -19 -2 -25 0 -7 3 -2 5 12 5 14 0 19 -2 13 -5z m101
-62 c14 -16 15 -19 2 -24 -9 -4 -16 3 -19 19 -5 29 -5 29 17 5z m784 -51 c-15
-16 -28 -38 -28 -50 0 -18 -3 -19 -20 -10 -20 11 -19 12 10 36 18 16 30 35 30
50 0 21 3 23 18 13 17 -11 16 -13 -10 -39z m792 11 c0 -11 -12 -33 -26 -48
l-26 -28 21 29 c12 16 21 37 21 47 0 11 2 19 5 19 3 0 5 -9 5 -19z m-2490 -33
c0 -6 -7 -5 -15 2 -8 7 -15 17 -15 22 0 6 7 5 15 -2 8 -7 15 -17 15 -22z m885
1 c-10 -15 2 -52 24 -76 17 -17 18 -22 6 -27 -10 -3 -15 1 -15 14 0 10 -13 31
-28 47 -29 27 -29 28 -8 39 28 16 28 16 21 3z m-792 -19 c3 -11 1 -18 -4 -14
-5 3 -9 12 -9 20 0 20 7 17 13 -6z m1604 -112 c-23 -23 -28 -35 -25 -60 4 -26
3 -28 -7 -15 -7 10 -18 17 -24 17 -7 0 1 14 18 31 18 17 31 41 31 55 0 21 3
23 18 13 17 -11 16 -13 -11 -41z m793 8 c0 -8 -10 -25 -22 -38 -13 -13 -18
-17 -12 -8 7 8 15 25 18 38 8 25 16 29 16 8z m-2403 -48 c-3 -8 -6 -5 -6 6 -1
11 2 17 5 13 3 -3 4 -12 1 -19z m795 -7 c4 -29 4 -29 -19 -13 -27 20 -29 29
-5 35 9 3 18 5 18 6 1 0 4 -12 6 -28z m45 -66 c1 0 -6 -6 -15 -11 -14 -9 -17
-7 -17 12 0 18 3 20 15 11 8 -6 16 -12 17 -12z m767 -38 c-13 -16 -24 -39 -24
-52 0 -21 -2 -22 -24 -12 l-25 12 23 12 c26 14 52 66 41 83 -5 7 0 7 13 -1 20
-13 20 -13 -4 -42z m796 4 c0 -6 -10 -20 -22 -33 -13 -13 -17 -17 -10 -8 6 9
12 24 12 33 0 9 5 17 10 17 6 0 10 -4 10 -9z m-2494 -28 c-7 -7 -26 7 -26 19
0 6 6 6 15 -2 9 -7 13 -15 11 -17z m884 -17 c0 -22 -2 -23 -24 -13 l-25 12 22
12 c12 7 23 12 25 13 1 0 2 -11 2 -24z m-787 -6 c3 -11 1 -18 -4 -14 -5 3 -9
12 -9 20 0 20 7 17 13 -6z m816 -77 c-13 -15 -23 -18 -14 -3 3 5 1 20 -6 32
-12 23 -12 23 10 4 16 -15 18 -22 10 -33z m779 -35 c-17 -19 -27 -39 -25 -49
4 -15 2 -16 -20 -6 l-24 11 23 12 c29 15 50 57 41 81 -6 17 -5 17 14 0 20 -18
20 -18 -9 -49z m792 3 c0 -5 -9 -19 -20 -32 l-20 -24 17 32 c19 34 23 39 23
24z m-1604 -42 c1 -24 -1 -28 -8 -15 -5 9 -17 16 -26 16 -12 1 -10 5 8 15 14
8 25 14 25 15 0 0 1 -14 1 -31z m-765 -36 c13 -16 12 -17 -3 -4 -17 13 -22 21
-14 21 2 0 10 -8 17 -17z m809 -28 c0 -1 -7 -8 -15 -15 -13 -10 -15 -9 -15 8
0 15 5 20 15 16 8 -4 15 -7 15 -9z m798 -18 c-1 -1 -12 -10 -24 -20 -20 -17
-20 -16 -16 13 4 26 7 28 24 19 11 -6 18 -11 16 -12z m762 -26 c0 -6 -11 -23
-25 -38 l-26 -28 23 37 c25 40 28 43 28 29z m-1605 -40 c0 -27 -1 -28 -21 -12
l-21 16 21 11 c12 7 21 12 21 13 0 1 0 -12 0 -28z m790 -10 c0 -27 -1 -28 -21
-12 l-21 16 21 11 c12 7 21 12 21 13 0 1 0 -12 0 -28z m-737 -67 c1 -1 -6 -4
-17 -7 -14 -3 -20 1 -24 20 -4 23 -4 23 17 6 11 -10 22 -18 24 -19z m789 -9
c-1 0 -11 -8 -23 -18 -20 -17 -20 -16 -16 12 4 26 6 28 23 18 10 -6 17 -11 16
-12z m609 -22 c8 -29 -19 -104 -51 -141 -13 -16 -47 -41 -76 -57 -44 -24 -64
-28 -123 -28 -77 0 -124 16 -175 59 -37 31 -77 104 -85 155 l-5 36 232 2 c127
1 233 4 235 6 10 10 43 -11 48 -32z m138 -30 c-11 -15 -26 -29 -33 -31 -7 -2
-1 7 13 22 14 14 26 31 26 37 0 7 3 9 7 6 4 -4 -2 -19 -13 -34z m-1568 -64 c9
-10 24 -19 33 -20 9 -1 5 -4 -9 -8 -22 -6 -27 -2 -41 30 -9 20 -25 39 -35 44
-18 7 -18 7 1 15 16 6 21 2 27 -17 4 -14 15 -34 24 -44z m767 48 c-4 -19 -10
-23 -29 -19 -13 2 -24 6 -24 8 0 2 46 30 56 34 1 0 -1 -11 -3 -23z m-866 7
c-3 -3 -12 -4 -19 -1 -8 3 -5 6 6 6 11 1 17 -2 13 -5z m-686 -51 c13 -16 12
-17 -3 -4 -10 7 -18 15 -18 17 0 8 8 3 21 -13z m1598 -41 c-18 -3 -58 -71 -53
-90 1 -7 0 -8 -3 -2 -8 18 -94 12 -110 -7 -13 -16 -13 -16 -3 5 6 12 8 27 5
32 -8 13 -2 13 29 -1 19 -9 32 -9 55 0 30 13 58 61 46 80 -4 7 4 6 21 -1 18
-9 23 -14 13 -16z m-867 -53 c17 6 29 9 26 5 -13 -13 16 -66 44 -80 24 -12 36
-14 55 -5 29 13 36 14 28 2 -10 -18 19 -64 50 -77 25 -11 27 -13 8 -14 -19 0
-56 34 -65 60 -2 5 -24 10 -50 11 -44 2 -47 5 -64 41 -16 36 -19 38 -66 38
-26 0 -48 2 -48 4 0 2 -3 11 -6 20 -5 14 -3 14 25 0 25 -13 38 -14 63 -5z
m1628 11 c0 -13 -37 -50 -51 -50 -5 0 2 13 18 30 32 33 33 34 33 20z m-1435
-19 c3 -5 2 -12 -3 -15 -5 -3 -9 1 -9 9 0 17 3 19 12 6z m-912 -56 c12 -8 16
-15 9 -15 -16 0 -52 37 -52 53 0 7 5 5 11 -5 5 -10 19 -24 32 -33z m1681 3
c-21 -37 -39 -48 -81 -48 -26 0 -43 -5 -43 -12 0 -6 -2 -9 -5 -7 -2 3 -2 15 1
26 5 19 9 20 30 11 27 -12 79 4 88 28 3 8 8 14 11 14 4 0 3 -6 -1 -12z m-1124
-19 l35 -7 -36 -1 c-23 -1 -42 5 -50 16 -12 14 -12 16 1 8 8 -5 30 -12 50 -16z
m843 -10 c-4 -12 -11 -18 -20 -15 -8 3 -20 6 -26 6 -7 1 2 7 18 15 17 7 31 14
32 14 0 1 -1 -8 -4 -20z m792 1 c-10 -11 -23 -20 -29 -20 -6 0 0 9 14 20 32
25 38 25 15 0z m-872 -8 c-13 -2 -23 -8 -23 -14 0 -6 -2 -9 -5 -6 -14 13 7 35
28 30 l22 -7 -22 -3z m-1190 -44 l22 -17 -23 6 c-12 3 -30 20 -38 37 -14 28
-14 29 1 11 8 -11 26 -28 38 -37z m556 -18 c12 0 32 5 44 12 20 10 21 10 8 -5
-18 -23 -83 -22 -103 1 -9 9 -21 28 -28 42 -10 19 -4 16 22 -12 20 -22 45 -38
57 -38z m1661 22 c0 -12 -39 -52 -51 -52 -6 0 2 13 18 30 31 32 33 34 33 22z
m-1950 -12 c13 -8 13 -10 -2 -10 -9 0 -20 5 -23 10 -8 13 5 13 25 0z m880 6
c0 -10 -32 -36 -43 -36 -7 0 -1 9 13 20 26 21 30 23 30 16z m258 -16 c-10 -15
-24 -20 -55 -20 -23 0 -44 4 -47 9 -4 5 10 7 31 4 25 -3 45 1 58 11 26 20 28
20 13 -4z m-538 0 c-8 -5 -22 -9 -30 -9 -10 0 -8 3 5 9 27 12 43 12 25 0z
m185 -8 c-3 -3 -11 0 -18 7 -9 10 -8 11 6 5 10 -3 15 -9 12 -12z m875 -2 c-24
-15 -36 -11 -14 4 10 8 21 12 24 10 2 -3 -2 -9 -10 -14z m-265 0 c-3 -5 -14
-10 -23 -10 -15 0 -15 2 -2 10 20 13 33 13 25 0z m-1805 -33 c18 -21 20 -26 7
-21 -17 6 -37 34 -37 50 0 4 1 5 3 3 1 -2 13 -17 27 -32z m521 -14 c13 -16 12
-17 -3 -4 -17 13 -22 21 -14 21 2 0 10 -8 17 -17z m1699 -6 c0 -2 -10 -12 -22
-23 l-23 -19 19 23 c18 21 26 27 26 19z"/>
</g>
</svg>
